<?xml version="1.0" encoding="utf-8"?>
<!-- Generator: Adobe Illustrator 18.1.1, SVG Export Plug-In . SVG Version: 6.00 Build 0)  -->
<svg version="1.1" id="Layer_1" xmlns="http://www.w3.org/2000/svg" xmlns:xlink="http://www.w3.org/1999/xlink" x="0px" y="0px"
	 viewBox="0 0 612 792" enable-background="new 0 0 612 792" xml:space="preserve">
<g>
	<g>
		<path fill="#FEFEFE" d="M307.1,813c-195.5,0-391,0-586.4,0.1c-4.2,0-4.8-1-4.8-4.9c0.1-274.1,0.1-548.3,0-822.4
			c0-4,0.7-4.9,4.8-4.9c390.8,0.1,781.6,0.1,1172.4,0c4.4,0,5,1.1,5,5.2c-0.1,274.1-0.1,548.3,0,822.4c0,3.6-0.7,4.6-4.5,4.6
			C698.1,813,502.6,813,307.1,813z"/>
		<path fill="#020202" d="M165.4,342c-12.3-0.1-23.8,3.3-34.8,8.1c-19.3,8.5-36.1,20.7-51.9,34.5c-9.3,8.2-18.6,16.4-27.2,25.3
			c-2.1,2.2-4.5,3.3-6.9,1.2c-3.8-3.5-8.7-3.8-13.2-3.9c-9.6-0.3-19.2-1.2-28.7-1c-23.8,0.4-46.8,4.9-68.5,15.6
			c-16.4,8.1-31.6,17.9-46.7,28.1c-5,3.4-6.9,3-9.7-2.1c-9.6-17.4-19.7-34.5-32.6-49.7c-17.4-20.4-38.7-35.2-65.3-41
			c-15.1-3.3-30.4-6.1-45.9-6c-1.6,0-3.7,0.3-3.9-1.9c-0.1-1.5,1.4-2.6,2.8-3.1c12.8-3.7,24.9-9.5,37.1-14.7
			c19.9-8.6,39.8-17.3,59-27.4c30.3-15.9,59.7-33.2,86.9-54.1c20-15.4,37.9-32.8,55.4-50.7c3.1-3.1,4.7-3.7,8.2-0.2
			c15.7,15.7,34.1,27.9,53,39.3c12.4,7.5,25.1,14.5,38.2,20.7c33.1,15.8,67.3,28.4,102.4,39.1c2.1,0.6,4.2,1.3,6.3,2
			c1.1-1.2,0.1-1.8-0.5-2.5c-16.4-18.3-27.3-39.7-34.6-63c-3-9.7-4.6-19.8-5.6-30.1c-0.6-7-1-13.9-0.7-20.8
			c0.9-19.3,3.9-38.3,11.7-56.2c1.7-3.8,2.6-7.9,4.8-11.5c0.6-1,0.6-2,0-2.8c-11.3-15.5-20.5-32.4-34.6-45.8
			c-14.2-13.5-31.4-21.2-49.6-27.3c-1.7-0.6-3.2,0.3-4.7,1c-4.8,2.3-9.6,4.6-14.3,7.2c-1.8,1-3.3,1.1-4.1-0.7
			c-0.9-1.8,0.2-2.8,2.1-3.7c4.5-2.1,8.9-4.5,14.2-7.3c-5.5-1.7-10.2-3.1-14.8-4.8c-1.7-0.7-4.7-1.3-3.4-4.3
			c1.2-2.7,3.3-1.1,5.1-0.5c4.8,1.6,9.6,3.1,14.7,4.8c-1.2-4.8-4.6-8-6.2-12.2c-0.7-1.8-1.4-3.1,0.4-4.2c1.8-1.1,2.9,0,3.8,1.7
			c2.7,5,5.5,9.8,8.3,14.7c0.9,1.7,1.6,2.3,4,1.6c17.7-5.1,35.9-7.8,54.3-6.3c16.2,1.3,31.6,6.1,46.2,13.2
			c10,4.9,19.4,10.8,28.7,16.9c1.7,1.1,2.9,1.5,4.5,0.3c17.4-12.6,37.3-19.6,58.2-23.4c27.6-5,54.8-2,81.1,8.3
			c7.5,2.9,15.2,5.2,21.7,10c3.1,2.3,4.6-0.2,6.5-1.4c15.3-10.2,31.2-19,49.1-24.3c16.5-4.8,33-5.8,50-3.9
			c9.7,1.1,19.1,3.2,28.5,5.7c2.3,0.6,2.7,0,3.6-1.6c2.7-4.9,5.7-9.7,8.3-14.7c0.9-1.8,1.8-2.9,3.7-2c2.3,1.1,1.4,2.9,0.5,4.6
			c-2.1,3.8-4.1,7.6-6.5,12.1c5.9-1.9,11.2-3.5,16.4-5.4c2-0.8,3.4-0.5,4,1.3c0.6,1.6-0.4,2.7-2.1,3.3c-5.2,1.7-10.3,3.6-15.6,5.5
			c3.8,3.1,8.6,4.6,12.9,7c1.6,0.9,3.7,1.6,2.7,3.9c-1.1,2.6-3.2,1.5-5,0.6c-0.4-0.2-0.8-0.6-1.3-0.8c-16.8-8.3-18.9-8.2-36.2-0.1
			c-14.4,6.8-27.1,15.6-37.6,27.6c-9.9,11.4-17.9,24.1-26,36.8c-1.2,1.8,0.2,2.7,0.9,3.7c10.1,15.3,15.6,32.3,19.3,50.1
			c2.8,13.5,3.8,27.1,2.8,40.7c-1.3,16.8-4.7,33.2-11.2,48.9c-4.9,11.8-10.9,22.9-18.1,33.4c-3.6,5.3-7.7,10.1-11.1,15.9
			c15.6-5.1,31.5-9.6,46.9-15.3c25.6-9.5,50.9-19.8,75-32.6c22.3-11.8,43.9-24.5,63.5-40.5c5.5-4.5,11-8.8,15.9-14
			c2.1-2.3,3.6-2.1,5.7,0c8.2,8.3,16.3,16.7,24.7,24.7c21.4,20.3,44.9,37.9,69.9,53.5c20.6,12.9,41.9,24.6,63.8,35.2
			c25.7,12.4,51.9,23.8,78.4,34.4c0.6,0.2,1.3,0.3,1.9,0.3c2.1,0.2,3.7,1.4,3.6,3.3c-0.2,2.1-2.4,1.7-4,1.7
			c-20.1,0.5-39.8,3.4-58.8,10c-14.8,5.2-28,13.1-39.5,24c-17.5,16.5-30.4,36.3-42.1,57.1c-7.6,13.6-6.9,12.2-18,4.4
			c-12.1-8.4-24.4-16.4-37.5-22.9c-16-8-32.8-14-50.9-15.7c-8.3-0.8-16.7-2.6-25-1.7c-11,1.2-22.1-0.2-33,1.7
			c-2.3,0.4-3.6,2.1-5.4,3.1c-2.5,1.4-4.5,1.5-6.6-0.5c-6.5-6.6-13.2-13-20.1-19.2c-14.6-13.2-30-25.4-47.2-35.1
			c-12.4-7-25.7-11.7-39.7-14.1c-2.4-0.4-5-0.1-7.6-0.1c4.4,15,8.7,29.8,12.1,44.8c4,17.6,8.1,35.2,10.7,53.2
			c1.8,12.7,4.1,25.3,5.9,38c1,7.3,1.3,14.7,2.1,22c3.8,34.2,3.4,68.5,2.7,102.8c-0.3,14.8-1.8,29.7-3.6,44.5
			c-1.3,10.7-2.6,21.3-4.2,32c-2.9,19.2-6.6,38.2-11.6,56.9c-2.2,8.2-4.1,16.5-6.5,24.7c-1.9,6.5-7.8,8.2-13.3,10.1
			c-10.1,3.5-20.5,4.3-31.1,5.3c-12.8,1.2-25-0.5-36.9-4.4c-11.4-3.7-21-10.2-25.3-22.2c-4.5-12.4,1.6-24.6,10.4-31.6
			c8.7-7,18.6-11.3,29.7-13c1.9-0.3,1.5-1.3,1.6-2.4c0.8-20.7-2.7-40.4-15.4-57.1c-9.3-12.3-21.8-20.5-37.9-22.6
			c-21.3-2.9-38.9,3.7-53,19.2c-9.6,10.6-14.7,23.5-16.8,37.8c-1,6.5-0.4,12.9-0.9,19.3c-0.1,2,0.5,2.4,2.6,3
			c15.3,3.8,29.6,9.1,37.5,24.4c6.7,12.9,1.3,26.4-9.1,34.4c-10.6,8.2-23,11-36.1,12.2c-17.5,1.6-34.3-1.5-51-5.7
			c-3-0.7-5.9-1.7-8.8-2.3c-9.7-2.1-13.9-8.3-16.2-17.5c-4.9-19.7-10-39.3-13.6-59.3c-2.2-12.3-4-24.7-5.4-37.2
			c-1.7-15.5-2.7-31-4-46.5c-1.5-18.1-0.1-36.2-0.9-54.3c-0.5-12.3,0.5-24.5,1.3-36.7c0.8-12.3,1.2-24.7,1.9-37
			c1.1-21.4,5.2-42.4,9.6-63.3c3.6-17.2,7.6-34.2,11.9-51.3C162.3,354.8,164.6,348.8,165.4,342z"/>
		<path fill="#2C2C2C" d="M451,568c0,11,0.2,19.5,0,28c-0.5,16.9-2.2,33.7-3.7,50.5c-2.5,27.1-7.8,53.6-13.5,80.1
			c-2.4,10.9-5.2,21.9-9.9,32.1c-2.4,5.1-7.8,7.1-12.5,8c-11,2.2-21.9,5.3-33.4,4.3c-14.6-1.2-29-2.8-41.3-12.1
			c-12.2-9.2-12.8-27.5-0.9-37.2c8.4-6.9,18-11,28.6-12.8c4-0.7,5.7-2.4,5.8-6.9c0.1-17.1-1.6-33.8-9.7-49.2
			c-8.1-15.3-19.4-26.4-36.3-32.6c-20.5-7.5-39.2-4.7-56.8,6.8c-18.3,11.9-27.1,30.1-30.5,51.3c-1.1,7-0.4,13.9-1,20.9
			c-0.4,4.3,1.6,6.1,5.4,6.7c10.2,1.5,19.3,5.5,27.5,12c14.9,11.7,12.4,29.4-0.1,38.4c-9.7,7-20.4,9.6-32,10.9
			c-20.2,2.2-39.3-2.7-58.6-7.5c-9.1-2.3-11.8-9.6-13.9-17c-4.2-15.3-8-30.7-11.4-46.1c-3.4-15-4.5-30.3-6.8-45.5
			c-2.6-17.2-3.5-34.5-4.7-51.8c-1.1-15.1,0.1-30.3-0.4-45.5c-0.5-14.1-0.5-28.1,1.2-42.1c2-16.7,1.2-33.5,3-50.1
			c1.4-12.6,4.2-25.1,6.4-37.6c4.9-27.9,12-55.2,19.4-82.5c3.2-11.9,9.7-22.5,13.2-34.3c0.7-2.3,2.2-2.2,3.7-0.6
			c18,19,40.4,30,65.2,37.1c15.8,4.5,31.9,6.3,48.2,5.3c24.3-1.4,47.2-8.2,68.5-20.3c10.8-6.2,20.4-14.1,29.6-22.5
			c2.8-2.5,3.5-2.1,5,1.3c11,24.8,18.2,50.8,24.6,77c5.4,22.3,9.6,44.8,13.2,67.4c2.9,18.3,4.7,36.7,6.8,55
			c0.7,5.9,0.6,11.9,1.1,17.9C451.4,540,450.9,555.3,451,568z"/>
		<path fill="#2C2C2C" d="M291.4,344.2c-27.5-1-53.2-7.8-76.7-22.6c-6.8-4.3-13.6-8.6-19.2-14c-10.6-10.4-20.6-21.5-28.4-34.3
			c-10.3-16.8-17.4-34.8-21.3-54c-3-14.5-3.6-29.1-1.9-44c1-8.4,2.1-16.7,3.4-25c1.3-8,5.4-15.2,8.2-22.8c6.7-18.6,16.9-35,31.9-48
			c11.2-9.7,23.6-18.2,36.7-25.3c17.3-9.5,36-14.2,55.7-16.2c28.3-3,54.7,2.8,79.9,15c27.3,13.2,46.5,34.9,62.9,59.8
			c11.7,17.8,17.1,37.5,20.3,58c2.8,18.3,1.2,36.6-2.7,54.8c-5.3,24.4-16.6,45.8-32.2,64.9c-6.1,7.5-13.8,13.8-21.2,20.3
			c-9.6,8.5-20.6,14.4-31.7,20.2c-9.8,5.1-20.7,7.9-31.6,10.2C312.9,343.1,302.2,344.3,291.4,344.2z"/>
		<path fill="#2C2C2C" d="M-119.3,444.1c-3.9-8.7-9.4-15.2-13.2-22.5c-4.6-8.7-10.4-16.5-16.4-24.1c-18.3-23.4-41.7-38.9-70.9-45.6
			c-10.6-2.4-21.4-3.7-32.9-5.3c7.9-3.6,15.2-7,22.6-10.1c21.6-9.2,43.2-18.5,64-29.4c29-15.2,57.1-31.8,83.1-51.7
			c10.5-8,20.6-16.6,30.3-25.8c7.1-6.7,13.8-13.8,21.9-20.8C-51.5,291.1-85.7,367-119.3,444.1z"/>
		<path fill="#2C2C2C" d="M841.2,345.6c-18.8,1.9-36.1,4.9-52.6,11.5c-13.5,5.4-25.7,13-36.4,23c-12,11.3-22.1,24.2-30.9,38
			c-4.2,6.5-8,13.3-11.9,20c-0.6,1-0.8,2.4-2.2,2.5c-1.5,0.1-1.7-1.5-2.1-2.4c-4.5-10.5-8.8-21-13.4-31.5
			c-6.7-15.3-13.7-30.5-20.2-45.9c-5.8-13.7-11-27.7-16.6-41.5c-12-29.7-21.3-60.3-30.3-91c-1.1-3.8-2.7-7.5-4-11.2
			c-0.9-2.6-2.2-5.2-0.9-9.5C681,273.6,759.2,311.7,841.2,345.6z"/>
		<path fill="#2C2C2C" d="M607.2,206.8c-23.1,66.2-45.8,131.3-68.6,196.6c-3.2-1.4-4.9-4.4-7.3-6.5c-9.5-8.5-19-17-28.9-25.1
			c-11.5-9.4-23.6-17.6-36.7-24.3c-13.3-6.8-27.3-11.1-42.3-11.4c-2.2,0-3.1-0.7-3.6-3c-1.7-8.3-6.2-15.7-9.4-23.5
			c-1.9-4.6-0.9-5.7,3.1-7c11.4-3.5,22.8-7,34-11c21.4-7.6,42.6-15.8,63.2-25.4c25.6-11.9,50.2-25.6,73.4-41.7
			c4.4-3,8.5-6.4,12.1-10.3C599.1,211.1,603,209.8,607.2,206.8z"/>
		<path fill="#2C2C2C" d="M49.4,404.8C26.6,339.1,3.9,273.9-19.3,207.4c5,2.4,7.8,5.7,10.7,8.3c11.2,10,23.9,17.8,36.6,25.6
			c13.8,8.4,28.1,16.2,42.8,23.1c18.5,8.6,37.2,16.9,56.5,23.5c15.5,5.4,31.1,10.5,46.7,15.5c4.2,1.4,6.2,2.4,3.5,7.5
			c-3.8,7.1-6.2,15-9,22.6c-0.8,2.1-1.5,3.4-4.1,3.5c-19.9,0.4-37.4,8-54,18.2c-15.9,9.7-30.4,21.2-44,33.8
			C60.8,394.1,55.6,399.4,49.4,404.8z"/>
		<path fill="#2C2C2C" d="M-24.3,207.8C-1.6,272.9,21,338,43.7,403.3c-12-0.6-23.9-0.9-35.7-1.4c-23-1.1-45.1,2.5-66.4,11.2
			c-13.2,5.4-25.6,12.2-37.6,20c-5.8,3.8-11.2,8.1-18.5,12C-80.4,366.8-45.9,289.8-24.3,207.8z"/>
		<path fill="#2C2C2C" d="M612.3,206.8c21.3,82.1,55.9,159,90.2,237.5c-24.4-16.2-47.7-31.3-75.1-38.6c-27.4-7.3-55-5.4-83.3-3.2
			C566.9,337.1,589.6,271.9,612.3,206.8z"/>
		<path fill="#2C2C2C" d="M80.2,37.3c9.3-2.2,18-4.7,27.1-5.3c19.6-1.2,38.8,0.9,57,8.6c12.1,5.1,23.5,11.5,34.3,18.7
			c2.6,1.7,3,3.4-0.2,5c-1.3,0.6-2.4,1.8-3.5,2.8c-2.3,2-4.4,2.4-7.1,0.4c-4.8-3.5-9.9-6.7-14.8-10.1c-8.1-5.7-17.7-7.2-27-9.2
			c-1.6-0.3-3.2,0.4-3.7,1.8c-0.7,2.1-0.6,4.2,1.2,6c4,3.9,8.2,7.6,12,11.8c5.3,5.8,9.5,12.3,13.7,18.9c1.7,2.7,0.3,4.9-1.1,6.9
			c-3.1,4.3-6.3,8.5-8.5,13.3c-1.2,2.7-2.3,2-3.7-0.1c-6.4-9-11.9-18.7-18.7-27.5c-13.9-18-30.9-31.7-52.5-39.2
			C83.3,39.6,81.8,39.2,80.2,37.3z"/>
		<path fill="#2C2C2C" d="M498.5,33c-36.1,11.6-57.6,38.9-76.1,70.1c-4.4-5.6-8.4-10.8-12.4-16c-1.4-1.9-0.8-3.7,0.2-5.6
			c5-9.2,11.2-17.5,19.2-24.5c2.2-2,4.3-4.2,6.4-6.3c1.8-1.8,1.5-3.9,0.5-6c-1.1-2.3-2.8-1.3-4.7-1.1c-14.8,1.5-26.9,8.6-38.3,17.5
			c-1.8,1.4-3.9,4-5.9,3.2c-3.2-1.4-6.2-3.9-8.7-6.4c-1.5-1.4,0.5-2.7,1.7-3.5c11.5-7.7,23.4-14.3,36.3-19.4
			c17.4-7,35.6-9.1,54.2-7.8C480.1,27.8,489.3,29.8,498.5,33z"/>
		<path fill="#FCFCFC" d="M404.7,81.4c-3.9-4-7.4-7.6-11-11.2c-1.1-1.1-2-1.9-0.2-3.3c10.7-8,21.7-15.4,35.2-17.9
			c0.3-0.1,0.6,0.1,1.4,0.3C419.6,58.3,411.2,68.6,404.7,81.4z"/>
		<path fill="#FCFCFC" d="M148.7,53.9c13.3,2.1,23.5,8.6,33.7,15.7c4.4,3.1,3.4,4.7,0.2,7.3c-3,2.5-5.1,7.2-8.7,7.4
			c-1.7,0.1-3.6-5.8-5.7-8.7c-4.9-6.8-10-13.6-16.7-18.8C150.5,56.2,149.9,55.2,148.7,53.9z"/>
		<path fill="#020202" d="M361.1,487.9c-0.4,25.1-5.8,50.2-20.9,72.5c-7.1,10.6-16.2,18.7-28.4,23.1c-14.5,5.2-27.5,1.9-39.4-6.8
			c-16.2-11.8-24.6-28.9-30.3-47.4c-4.9-15.9-7-32.4-6-49.1c1.3-24.3,6.3-47.8,20.9-67.9c9-12.3,19.8-22.9,36.2-25.1
			c4.1-0.5,8.2-0.4,12.3,0.5c24.2,5.2,36.2,23.2,45.2,43.8C358.2,449.1,361,467.6,361.1,487.9z"/>
		<path d="M276.1,166.1c-0.9,17-2.8,33.7-14.2,47.6c-10.3,12.6-23,12.1-33,1c-8.6-9.6-11.7-21.5-13.7-33.6
			c-2.7-16.5-1-32.7,4.9-48.4c3.3-8.9,8.2-16.8,16.9-21.5c7.4-4,14.9-2.3,21.1,3.3c9.4,8.5,13.3,19.7,15.9,31.5
			C275.3,152.5,276.6,159.2,276.1,166.1z"/>
		<path d="M374.2,164.7c-0.6,17.3-2.9,32.3-11.3,45.2c-4.4,6.7-10.2,13.3-19.7,13c-10.6-0.3-16.7-7.1-21.4-15.5
			c-5.2-9.4-7.6-19.6-9-30.3c-2-15.4,0.1-30,5.1-44.4c2.7-7.7,7.3-14.2,13.4-19.5c8.1-7,19.6-5.3,27.7,4.1
			c8.7,10.1,11.9,22.3,13.8,35.1C373.6,157.1,374.6,161.9,374.2,164.7z"/>
		<path fill="#020202" d="M298,276.1c15,0.9,30.6-5,46.4-10.3c4.1-1.4,8.2-2.6,12.4-3.7c3.3-0.9,5.2-2,3.8-6.1
			c-1.3-3.9-1.7-8.1-2.5-12.1c-0.3-1.6,0-3.1,1.8-3.6c1.8-0.5,2.3,1.1,2.7,2.3c0.6,1.9,1.2,3.7,1.4,5.8c0.6,8.3,4.5,14.8,11.5,19.3
			c2.2,1.4,3.1,3.8,5.2,5.3c1.3,0.9,1.7,2.3,0.7,3.4c-1.2,1.4-3.1,1-3.9-0.4c-2.3-4.1-7.3-5.1-10-8.8c-1.7-2.3-4.1-2.6-6.7-1.5
			c-0.3,0.1-0.6,0.3-0.9,0.3c-8.9,1.1-13.3,6-14.2,15c-0.5,5.5-2.8,10.9-4.3,16.3c-0.3,1.2-0.4,2.7-2.3,2.7c-1.5,0-2.4-0.8-3.1-2.1
			c-3.2-5.2-6.6-10.3-9.8-15.6c-1.9-3.2-3.5-4.7-7.8-3.7c-11.8,2.9-23.9,3.5-36,1.5c-3.5-0.6-5.6,0.6-7.5,4
			c-3.4,5.9-5.8,12.2-10.4,17.5c-3,3.6-4.1,1.9-4.9-0.8c-2-6.5-3.8-13-5.4-19.6c-1-4.2-3.1-6.7-7.4-7.1c-0.3,0-0.7,0-1-0.1
			c-12.7-2.3-12.7-2.3-17.4,9.6c-0.2,0.6-0.3,1.3-0.6,1.9c-0.9,1.7-1.4,4.3-4.1,3.1c-2.4-1-1.3-3.1-0.6-4.7c2.3-5.2,4.8-10.2,7-15.4
			c2.5-5.9,4.2-11.9,2.1-18.3c-0.3-0.9-0.1-2-0.1-3c0-1.9,0.1-4,2.6-3.9c2.2,0.1,2.3,2,2.4,3.7c0,5.6,1.8,11.1,0,16.7
			c-0.8,2.5,0.3,3.3,2.7,3.8c13.9,2.9,27.7,6.2,41.9,7.7C286.4,275.7,291.1,275.9,298,276.1z"/>
		<path fill="#C2C2C2" d="M356.1,486.4c-0.3,22.3-4.2,43.7-15.1,63.4c-5.3,9.7-12.2,17.7-21.3,24.5c-7.8,5.8-16,7-24.9,6.5
			c-7.4-0.5-13.9-3.8-19.9-8.3c-15.1-11.5-22.8-27.5-28.1-45.1c-4.7-15.5-6.6-31.4-5.8-47.5c1.2-23.3,6.5-45.6,20-65.2
			c7.7-11.2,18-19.7,31.5-22.4c10.6-2.1,20.6,1.4,29.3,8c17.2,13,25,31.6,30.1,51.6C354.8,463.2,356.3,474.7,356.1,486.4z"/>
		<path fill="#FEFEFE" d="M269.6,183.8c-2.4-5-3.2-9.6-5.4-13.6c-4.1-7.2-9.7-12-18-12.1c-8.5-0.1-14.2,4.9-18.3,12.3
			c-3.5,6.3-4.8,13-5,20.9c-2.8-6.2-3.3-12.3-3.6-17.9c-1.1-17.4,1.1-34.4,10.8-49.6c2.3-3.6,5.3-6.9,9.3-8.6
			c7.2-3.2,14.8-0.1,20.4,8.2c5.8,8.7,8.6,18.5,10.3,28.8C271.7,162.4,271.2,172.5,269.6,183.8z"/>
		<path fill="#FEFEFE" d="M367.3,182.7c-1.7-4.2-3-8.6-5.2-12.6c-4-7.2-9.7-12-18.1-12c-8.3,0-14,4.8-18,12
			c-3.5,6.4-5.2,13.2-5.4,20.5c-2.7-11.6-4.6-23.1-2.9-35.2c1.4-9.3,3.3-18.4,7.4-26.8c2.5-5.1,6-9.7,10.8-12.5
			c9.2-5.2,15.4-1.1,21.9,7.6c6.1,8.2,8.6,18.2,10.2,28.3C369.7,162.2,369.3,172.3,367.3,182.7z"/>
		<path fill="#FCFCFC" d="M328.2,276.1c4.6-1.4,9.3-2.8,14.6-4.5c-1.7,6.8-3.3,13-5.1,20C334.3,286,331.3,281.1,328.2,276.1z"/>
		<path fill="#FCFCFC" d="M262.7,294.5c-1.7-6.4-3.3-12-4.9-18c3.5,0.5,6.7,1.2,9.9,1.5c3.2,0.3,5.2,1,2.4,4.4
			C267.2,285.9,266.7,291,262.7,294.5z"/>
		<path fill="#030303" d="M302.6,522c-5.9,0-10.4-5-10.6-11.8c-0.2-6.5,5-12.4,10.7-12.2c5.6,0.1,10.4,5.8,10.3,12.1
			C313,516.8,308.4,522,302.6,522z"/>
		<path fill="#7E7E7E" d="M308,510.5c-0.5,2.7-1.1,6.4-5.3,6.4c-3.8,0-5.7-2.8-5.7-6.6c0-3.7,1.8-6.8,5.3-7
			C306.1,503,307.9,506.1,308,510.5z"/>
	</g>
</g>
</svg>
